<?xml version="1.0" encoding="UTF-8" standalone="no"?>
<svg
   xmlns:dc="http://purl.org/dc/elements/1.1/"
   xmlns:cc="http://creativecommons.org/ns#"
   xmlns:rdf="http://www.w3.org/1999/02/22-rdf-syntax-ns#"
   xmlns:svg="http://www.w3.org/2000/svg"
   xmlns="http://www.w3.org/2000/svg"
   xmlns:sodipodi="http://sodipodi.sourceforge.net/DTD/sodipodi-0.dtd"
   xmlns:inkscape="http://www.inkscape.org/namespaces/inkscape"
   version="1.1"
   id="Capa_1"
   x="0px"
   y="0px"
   viewBox="0 0 464.736 464.736"
   style="enable-background:new 0 0 464.736 464.736;"
   xml:space="preserve"
   width="25"
   height="25"
   sodipodi:docname="color-picker.svg"
   inkscape:version="1.0.1 (3bc2e813f5, 2020-09-07)"><metadata
   id="metadata26"><rdf:RDF><cc:Work
       rdf:about=""><dc:format>image/svg+xml</dc:format><dc:type
         rdf:resource="http://purl.org/dc/dcmitype/StillImage" /></cc:Work></rdf:RDF></metadata><defs
   id="defs24" /><sodipodi:namedview
   pagecolor="#ffffff"
   bordercolor="#666666"
   borderopacity="1"
   objecttolerance="10"
   gridtolerance="10"
   guidetolerance="10"
   inkscape:pageopacity="0"
   inkscape:pageshadow="2"
   inkscape:window-width="1366"
   inkscape:window-height="745"
   id="namedview22"
   showgrid="false"
   inkscape:zoom="22.177102"
   inkscape:cx="12.5"
   inkscape:cy="12.5"
   inkscape:window-x="-8"
   inkscape:window-y="-8"
   inkscape:window-maximized="1"
   inkscape:current-layer="Capa_1" />
	<path
   d="m 421.4512,43.289802 c -24.183,-24.184 -63.393,-24.191 -87.592,-0.008 l -16.717,16.717 c -8.98,-8.979 -23.525,-8.979 -32.504,0 -8.981,8.972 -8.981,23.533 0,32.505 l 5.416,5.419 -180.588,180.600998 h -0.016 l -62.685002,62.691 c -4.982,4.982 -7.919,11.646 -8.235,18.684 l -0.15,3.344 c 0,0.016 0,0.03 0,0.046 l -2.529,56.704 c -0.104,2.633 0.883,5.185 2.739,7.048 1.751,1.759 4.145,2.738 6.63,2.738 0.135,0 0.269,0 0.42,-0.008 l 30.064,-1.331 h 0.016 l 18.318,-0.815 8.318002,-0.366 c 9.203,-0.412 17.944,-4.259 24.469,-10.776 l 240.898,-240.891 4.506,4.505 c 4.49,4.488 10.372,6.733 16.252,6.733 5.881,0 11.764,-2.245 16.253,-6.733 8.98,-8.973 8.98,-23.534 0,-32.505 l 16.716,-16.718 c 24.185,-24.183 24.185,-63.392998 10e-4,-87.583998 z m -173.959,209.186998 -84.6,15.96 137.998,-138.004 34.332,34.316 z"
   id="path19" />
<path
   style="fill:#ececec;stroke:#000000;stroke-width:18.5894px;stroke-linecap:butt;stroke-linejoin:miter;stroke-opacity:1"
   d="M 139.98387,284.99708 251.46802,261.52674 350.37878,166.80712 298.40871,114.83706 127.41047,286.67355 Z"
   id="path905" /></svg>
